<svg width="22" height="22" viewBox="0 0 22 22" fill="none" xmlns="http://www.w3.org/2000/svg">
<path fill-rule="evenodd" clip-rule="evenodd" d="M20.1323 18.2467C20.653 18.7674 20.653 19.6116 20.1323 20.1323V20.1323C19.6116 20.653 18.7674 20.653 18.2467 20.1323L1.27612 3.16176C0.755425 2.64106 0.755425 1.79684 1.27612 1.27614V1.27614C1.79682 0.755438 2.64104 0.755438 3.16174 1.27614L20.1323 18.2467Z" fill="#DD3875"/>
<path fill-rule="evenodd" clip-rule="evenodd" d="M18.2467 1.27613C18.7674 0.75543 19.6116 0.75543 20.1323 1.27613V1.27613C20.653 1.79683 20.653 2.64105 20.1323 3.16175L3.16174 20.1323C2.64104 20.653 1.79682 20.653 1.27612 20.1323V20.1323C0.755423 19.6116 0.755423 18.7674 1.27612 18.2467L18.2467 1.27613Z" fill="#DD3875"/>
</svg>
